<?xml version="1.0" encoding="UTF-8"?>
<svg width="20px" height="20px" viewBox="0 0 20 20" version="1.1" xmlns="http://www.w3.org/2000/svg" xmlns:xlink="http://www.w3.org/1999/xlink">
    <!-- Generator: Sketch 52.5 (67469) - http://www.bohemiancoding.com/sketch -->
    <title>Untitled</title>
    <desc>Created with Sketch.</desc>
    <g id="Page-1" stroke="none" stroke-width="1" fill="none" fill-rule="evenodd">
        <g id="icon-close" transform="translate(0.742188, 0.742188)" fill="#363636">
            <path d="M11.7858125,9.89581249 C11.4791943,9.52573859 11.4791943,8.98988641 11.7858125,8.61981251 L15.3098125,4.36581251 C15.580073,4.03827742 15.5571654,3.55899266 15.2568988,3.25872615 C14.9566323,2.95845965 14.4773476,2.93555203 14.1498125,3.20581249 L9.89581249,6.72981251 C9.52573859,7.03643068 8.98988641,7.03643068 8.61981251,6.72981251 L4.36581251,3.20581249 C4.03827742,2.93555203 3.55899266,2.95845965 3.25872615,3.25872615 C2.95845965,3.55899266 2.93555203,4.03827742 3.20581249,4.36581251 L6.72981251,8.61981251 C7.03643068,8.98988641 7.03643068,9.52573859 6.72981251,9.89581249 L3.20581249,14.1498125 C2.93555203,14.4773476 2.95845965,14.9566323 3.25872615,15.2568988 C3.55899266,15.5571654 4.03827742,15.580073 4.36581251,15.3098125 L8.61981251,11.7858125 C8.98988641,11.4791943 9.52573859,11.4791943 9.89581249,11.7858125 L14.1498125,15.3098125 C14.4773476,15.580073 14.9566323,15.5571654 15.2568988,15.2568988 C15.5571654,14.9566323 15.580073,14.4773476 15.3098125,14.1498125 L11.7858125,9.89581249 Z" id="Path" transform="translate(9.257812, 9.257813) rotate(45.000000) translate(-9.257812, -9.257813) "></path>
        </g>
    </g>
</svg>