<?xml version="1.0" standalone="no"?><!DOCTYPE svg PUBLIC "-//W3C//DTD SVG 1.1//EN" "http://www.w3.org/Graphics/SVG/1.1/DTD/svg11.dtd"><svg t="1547278289069" class="icon" style="" viewBox="0 0 1024 1024" version="1.1" xmlns="http://www.w3.org/2000/svg" p-id="1708" xmlns:xlink="http://www.w3.org/1999/xlink" width="24" height="24"><defs><style type="text/css"></style></defs><path d="M619.861333 539.221333a42.666667 42.666667 0 0 1 0-54.442666l150.357334-181.504a35.157333 35.157333 0 0 0-49.493334-49.493334l-181.504 150.357334a42.666667 42.666667 0 0 1-54.442666 0L303.274667 253.781333a35.157333 35.157333 0 0 0-49.493334 49.493334l150.357334 181.504a42.666667 42.666667 0 0 1 0 54.442666l-150.357334 181.504a35.157333 35.157333 0 0 0 49.493334 49.493334l181.504-150.357334a42.666667 42.666667 0 0 1 54.442666 0l181.504 150.357334a35.157333 35.157333 0 0 0 49.493334-49.493334l-150.357334-181.504z" p-id="1709"></path></svg>