<?xml version="1.0" standalone="no"?><!DOCTYPE svg PUBLIC "-//W3C//DTD SVG 1.1//EN" "http://www.w3.org/Graphics/SVG/1.1/DTD/svg11.dtd"><svg t="1547278236918" class="icon" style="" viewBox="0 0 1024 1024" version="1.1" xmlns="http://www.w3.org/2000/svg" p-id="4638" xmlns:xlink="http://www.w3.org/1999/xlink" width="24" height="24"><defs><style type="text/css"></style></defs><path d="M768 686.293333c-32.426667 0-61.653333 12.586667-83.84 32.853334L380.16 541.866667c2.346667-9.6 3.84-19.626667 3.84-29.866667s-1.493333-20.266667-3.84-29.866667l300.8-175.573333c22.826667 21.333333 53.333333 34.56 87.04 34.56 70.613333 0 128-57.386667 128-128s-57.386667-128-128-128-128 57.386667-128 128c0 10.24 1.493333 20.266667 3.84 29.866667l-300.8 175.573333c-22.826667-21.333333-53.333333-34.56-87.04-34.56-70.613333 0-128 57.386667-128 128s57.386667 128 128 128c33.706667 0 64.213333-13.226667 87.04-34.56l304 177.28c-2.133333 8.96-3.413333 18.346667-3.413333 27.946667A124.373333 124.373333 0 1 0 768 686.293333z" p-id="4639" fill="#363636"></path></svg>