<?xml version="1.0" standalone="no"?><!DOCTYPE svg PUBLIC "-//W3C//DTD SVG 1.1//EN" "http://www.w3.org/Graphics/SVG/1.1/DTD/svg11.dtd"><svg t="1547044668839" class="icon" style="" viewBox="0 0 1024 1024" version="1.1" xmlns="http://www.w3.org/2000/svg" p-id="10230" xmlns:xlink="http://www.w3.org/1999/xlink" width="24" height="24"><defs><style type="text/css"></style></defs><path d="M511.939765 0C229.255529 0-0.060235 229.255529-0.060235 512.060235-0.060235 794.744471 229.255529 1024 511.939765 1024 794.744471 1024 1024 794.744471 1024 512.060235 1024 229.135059 794.744471 0 511.939765 0ZM618.315294 627.952941C634.096941 616.086588 653.793882 608.858353 675.177412 608.858353 727.461647 608.858353 769.807059 651.203765 769.807059 703.488 769.807059 755.712 727.461647 798.117647 675.177412 798.117647 623.013647 798.117647 580.668235 755.712 580.668235 703.488L580.668235 703.427765 339.486118 586.812235C324.668235 596.329412 307.079529 602.051765 288.225882 602.051765 236.001882 602.051765 193.656471 559.646118 193.656471 507.422118 193.656471 455.137882 236.001882 412.792471 288.225882 412.792471 310.512941 412.792471 330.932706 420.502588 347.136 433.392941L580.608 320.632471 580.608 320.572235C580.608 268.348235 623.013647 226.002824 675.117176 226.002824 727.341176 226.002824 769.807059 268.288 769.807059 320.572235 769.807059 372.916706 727.341176 415.141647 675.117176 415.141647 653.733647 415.141647 634.096941 407.973647 618.194824 396.047059L382.735059 509.831529 382.494118 514.108235 618.315294 627.952941Z" p-id="10231"></path></svg>